# xmcd
#
# Track frame offsets:
#	150
#	16781
#	35526
#	52831
#	70853
#	85131
#	102904
#	118635
#	132975
#	147381
#	164716
#
# Disc length: 2388 seconds
#
# Revision: 9
# Processed by: cddbd v1.5.1PL0 Copyright (c) Steve Scherf et al.
# Submitted via: audiograbber 1.83.01
#
DISCID=9209520b
DTITLE=Brooks and Dunn - If You See Her - Brooks and Dunn - If You See Her
DYEAR=1998
DGENRE=Country
TTITLE0=How Long Gone
TTITLE1=I Can't Get Over You
TTITLE2=South Of Santa Fe
TTITLE3=If You See Her (With R McEntire)
TTITLE4=Brand New Whiskey
TTITLE5=Born And Raised In Black And White
TTITLE6=Your Love Don't Take A Backseat To Nothing
TTITLE7=Husbands And Wives
TTITLE8=Way Gone
TTITLE9=When Love Dies
TTITLE10=You're My Angel
EXTD=
EXTT0=
EXTT1=
EXTT2=
EXTT3=
EXTT4=
EXTT5=
EXTT6=
EXTT7=
EXTT8=
EXTT9=
EXTT10=
PLAYORDER=
